# xmcd CD database file
#
# Track frame offsets:
#	150
#	26187
#	56637
#	87567
#	111545
#	144327
#	168707
#	193110
#	216995
#	246492
#
# Disc length: 3726 seconds
#
# Revision: 0
# Processed by: cddbd v1.4PL0 Copyright (c) Steve Scherf et al.
# Submitted via: CDex 1.51
#
DISCID=a20e8c0a
DTITLE=Makoto Kuriya - Mercy, Mercy, Mercy
DYEAR=1999
DGENRE=Jazz
TTITLE0=Five Spot After Dark
TTITLE1=Song for My Father
TTITLE2=Mercy, Mercy, Mercy
TTITLE3=Cape Verdean Blues
TTITLE4=I Thought About You
TTITLE5=Work Song
TTITLE6=Song for My Teacher
TTITLE7=Love Your Magic Spell Is Everywhere
TTITLE8=Mama Time
TTITLE9=Oh! Blues
EXTD=YEAR: 1999
EXTT0=
EXTT1=
EXTT2=
EXTT3=
EXTT4=
EXTT5=
EXTT6=
EXTT7=
EXTT8=
EXTT9=
PLAYORDER=
